<svg width="133" height="152" viewBox="0 0 133 152" fill="none" xmlns="http://www.w3.org/2000/svg">
<path d="M38.6306 9.53405C50.8753 2.65413 64.776 -0.615689 78.7595 0.0955716C92.743 0.806846 106.251 5.4705 117.755 13.5585L117.74 13.579C118.583 14.1279 119.421 14.734 119.974 15.5048C120.754 16.5912 121.314 17.8076 121.623 19.0839C121.932 20.36 121.984 21.6715 121.775 22.9432C121.567 24.2149 121.102 25.4223 120.408 26.496C119.714 27.5696 118.803 28.4889 117.729 29.201C116.655 29.9131 115.438 30.4042 114.147 30.6464C112.857 30.8885 111.517 30.8769 110.207 30.6122C109.057 30.38 107.95 29.9569 106.931 29.3631L106.911 29.3944C98.3251 23.3579 88.2432 19.8775 77.8064 19.3465C67.3694 18.8157 56.9935 21.2555 47.8542 26.3905C38.7149 31.5256 31.1767 39.1513 26.0925 48.4032C21.0084 57.655 18.5808 68.164 19.0857 78.7411C19.5906 89.3183 23.0073 99.5414 28.9489 108.253C34.8906 116.964 43.1209 123.816 52.7068 128.033C62.2925 132.25 72.8515 133.664 83.1892 132.115C93.527 130.566 103.231 126.116 111.202 119.267L111.228 119.299C112.199 118.474 113.252 117.536 114.428 117.142C115.697 116.718 117.024 116.541 118.335 116.623C119.645 116.704 120.914 117.043 122.067 117.617C123.221 118.192 124.237 118.992 125.058 119.972C125.879 120.952 126.489 122.093 126.852 123.33C127.216 124.566 127.326 125.874 127.176 127.179C127.027 128.483 126.62 129.759 125.98 130.933C125.34 132.108 124.479 133.157 123.447 134.022L123.443 134.017C112.775 143.164 99.7976 149.111 85.9724 151.182C72.122 153.258 57.9745 151.364 45.1316 145.714C32.2886 140.064 21.2621 130.883 13.3015 119.212C5.34095 107.54 0.764156 93.8439 0.0876208 79.6727C-0.588888 65.5015 2.66262 51.4208 9.47434 39.0253C16.2861 26.6299 26.3859 16.414 38.6306 9.53405Z" fill="white"/>
<path d="M74.8994 31.014C83.009 30.809 91.0169 32.8754 98.0381 36.9848L98.0361 36.9877C101.685 38.6261 104.498 41.1562 104.498 44.8676C104.498 49.5618 100.521 52.8675 94.9981 52.8676C92.8375 52.9199 90.8324 52.341 89.1924 51.3373C84.9532 48.9697 80.1641 47.783 75.3164 47.9057C70.2862 48.033 65.3887 49.5645 61.165 52.3305C56.9412 55.0966 53.5549 58.9902 51.3818 63.5805C49.2089 68.1706 48.3328 73.2791 48.8506 78.3412C49.3684 83.4033 51.2603 88.222 54.3164 92.265C57.3726 96.3081 61.4746 99.4183 66.169 101.251C70.8632 103.084 75.9674 103.569 80.917 102.652C85.8665 101.735 90.4688 99.4518 94.2158 96.0551L94.3037 96.1547C95.5309 95.4123 96.9561 95.0004 98.499 95.0004C103.193 95.0004 106.999 98.8061 106.999 103.5C106.999 107.147 105.004 110.255 101.913 111.462C96.5886 115.387 90.4446 118.064 83.9268 119.272C75.9473 120.75 67.7191 119.969 60.1514 117.014C52.5836 114.059 45.9709 109.046 41.044 102.528C36.117 96.0098 33.0672 88.2404 32.2324 80.0795C31.3977 71.9187 32.8103 63.6834 36.3135 56.2836C39.8167 48.8836 45.2746 42.6072 52.084 38.1478C58.8934 33.6885 66.7897 31.2192 74.8994 31.014Z" fill="white"/>
<path d="M132.999 76.0006C132.999 83.1803 127.179 89.0006 119.999 89.0006C112.819 89.0006 106.999 83.1803 106.999 76.0006C106.999 68.8209 112.819 63.0006 119.999 63.0006C127.179 63.0006 132.999 68.8209 132.999 76.0006Z" fill="white"/>
</svg>
