<svg width="25" height="24" viewBox="0 0 25 24" fill="none" xmlns="http://www.w3.org/2000/svg">
<ellipse cx="12.1333" cy="12" rx="12.1333" ry="12" fill="white"/>
<mask id="mask0_1303_18663" style="mask-type:luminance" maskUnits="userSpaceOnUse" x="3" y="3" width="19" height="18">
<rect x="3.0332" y="3" width="18.2" height="18" fill="white"/>
</mask>
<g mask="url(#mask0_1303_18663)">
<path fill-rule="evenodd" clip-rule="evenodd" d="M19.569 10.5311H18.9581V10.5H12.1331V13.5H16.4189C15.7936 15.2464 14.1135 16.5 12.1331 16.5C9.6204 16.5 7.58314 14.4851 7.58314 12C7.58314 9.51488 9.6204 7.5 12.1331 7.5C13.293 7.5 14.3482 7.93275 15.1517 8.63963L17.2966 6.51825C15.9422 5.26987 14.1306 4.5 12.1331 4.5C7.94524 4.5 4.5498 7.85813 4.5498 12C4.5498 16.1419 7.94524 19.5 12.1331 19.5C16.321 19.5 19.7165 16.1419 19.7165 12C19.7165 11.4971 19.6641 11.0062 19.569 10.5311Z" fill="#FFC107"/>
<path fill-rule="evenodd" clip-rule="evenodd" d="M5.42432 8.50912L7.91582 10.3162C8.58998 8.6655 10.2227 7.5 12.1333 7.5C13.2932 7.5 14.3484 7.93275 15.1518 8.63962L17.2968 6.51825C15.9424 5.26987 14.1307 4.5 12.1333 4.5C9.22053 4.5 6.69452 6.12637 5.42432 8.50912Z" fill="#FF3D00"/>
<path fill-rule="evenodd" clip-rule="evenodd" d="M12.1334 19.5003C14.0922 19.5003 15.872 18.7589 17.2176 17.5533L14.8706 15.589C14.1092 16.1594 13.1628 16.5003 12.1334 16.5003C10.161 16.5003 8.48618 15.2564 7.85525 13.5205L5.38232 15.4049C6.63737 17.8338 9.18612 19.5003 12.1334 19.5003Z" fill="#4CAF50"/>
<path fill-rule="evenodd" clip-rule="evenodd" d="M19.5691 10.5311H18.9583V10.5H12.1333V13.5H16.419C16.1187 14.3389 15.5731 15.0623 14.8694 15.5891C14.8697 15.5888 14.8701 15.5887 14.8705 15.5884L17.2175 17.5526C17.0515 17.7019 19.7166 15.75 19.7166 12C19.7166 11.4971 19.6643 11.0063 19.5691 10.5311Z" fill="#1976D2"/>
</g>
</svg>
