<svg width="419" height="538" viewBox="0 0 419 538" fill="none" xmlns="http://www.w3.org/2000/svg">
<path d="M204.921 161.427C211.918 171.553 225.098 185.632 225.098 185.632L258.95 160.411L276.818 194.207L267.417 206.542L245.878 218.417L222.178 226.478L213.039 223.793L189.114 200.946L168.507 165.735L160.555 135.086L155.742 128.645L144.473 110.361L135.25 91.8163C135.25 91.8163 133.188 88.8808 134.328 87.6855C134.722 87.2727 135.042 87.0903 135.597 86.9632C137.051 86.6308 138.682 89.2161 138.682 89.2161L140.901 92.2201L145.743 98.257L143.669 93.2309L141.047 84.5074L139.087 77.8636C139.087 77.8636 138.724 75.6186 139.693 75.0615C140.691 74.4879 141.808 75.1232 142.461 76.0723L145.401 80.3472L151.886 91.7858C151.886 91.7858 150.013 83.9288 148.688 79.7692C148.205 78.2535 145.452 68.3109 146.355 67.0014C146.736 66.4486 147.033 66.1316 147.652 65.8747C149.511 65.104 151.025 69.7741 151.025 69.7741L160.852 91.2072L158.403 80.0572L157.194 74.2799C157.194 74.2799 155.166 68.2472 157.656 67.8092C158.279 67.6997 157.656 67.8092 159.271 67.9246C160.885 68.04 166.764 82.2807 166.764 82.2807L175.034 102.79L173.681 93.3437C173.681 93.3437 171.816 85.7999 174.087 81.9911C178.224 75.0528 182.007 92.1543 184.578 99.8133C186.447 105.382 186.844 108.766 187.17 114.632C187.521 120.956 186.014 130.809 186.014 130.809L195.467 146.118C199.159 152.096 200.927 155.647 204.921 161.427Z" fill="#FF9E85"/>
<g filter="url(#filter0_d_1169_18785)">
<path d="M317.741 112.587L319.431 100.971L326.166 102.919L334.786 102.557L348.847 98.1828L342.411 104.08L332.45 111.193L320.49 116.207L317.741 112.587Z" fill="black"/>
</g>
<path d="M308.395 50.3146C308.395 50.3146 308.099 45.5462 308.941 42.677C309.992 39.097 313.964 34.5513 313.964 34.5513L307.967 28.0622L306.303 23.0949C306.303 23.0949 306.061 17.6016 306.935 14.2514C307.739 11.1678 308.421 9.3929 310.293 6.81477C312.385 3.93374 313.681 1.49318 317.181 0.842539C320.003 0.317816 324.326 2.56532 324.326 2.56532L333.622 8.0782C333.622 8.0782 337.069 10.1062 339.476 10.9208C343.65 12.3335 346.521 10.714 350.696 12.1267C353.103 12.9414 356.549 14.9693 356.549 14.9693C356.549 14.9693 359.698 17.3029 361.083 19.3337C362.47 21.3685 363.492 25.1624 363.492 25.1624C363.492 25.1624 369.446 25.5787 372.617 27.4307C374.845 28.7318 377.552 31.8238 377.552 31.8238C377.552 31.8238 379.022 37.2614 378.929 40.8109C378.794 45.9644 376.007 48.3819 375.197 53.4732C374.654 56.8926 374.565 62.3167 374.565 62.3167L375.598 70.4711C375.598 70.4711 376.078 73.724 375.626 75.7255C374.799 79.3874 369.829 83.3918 369.829 83.3918L372.64 89.2492C372.64 89.2492 374.492 93.2466 373.042 94.9344C372.215 95.8965 371.381 96.2826 370.115 96.3413C368.066 96.4362 365.897 93.2116 365.897 93.2116C365.897 93.2116 366.126 95.6521 365.982 97.6621C365.839 99.672 366.044 99.9712 365.293 101.653C364.542 103.335 358.72 101.257 357.431 98.667C356.237 96.268 357.69 95.0493 357.891 92.2354C357.891 92.2354 355.81 90.3239 354.907 88.7898C353.869 87.0271 353.673 83.4492 353.673 83.4492L358.609 87.8423L364.233 88.2443L368.939 84.5403C368.939 84.5403 371.621 80.9732 372.613 78.3384C373.232 76.6917 373.355 75.7048 373.33 73.9454C373.302 71.8996 372.942 70.5769 371.667 68.9781C370.35 67.328 369.491 66.86 367.391 66.6523C365.356 66.4511 362.427 68.3177 362.427 68.3177C362.427 68.3177 360.734 69.4088 359.787 71.3612C358.839 73.3137 359.93 75.0077 355.626 73.0839C351.321 71.1601 353.761 65.274 353.761 65.274L353.933 62.8622L357.292 55.4256L357.292 49.7692C357.292 49.7692 353.872 48.4768 353.074 46.6395C352.188 44.5982 354 43.0068 353.075 40.9831C352.334 39.3641 351.994 38.876 350.464 37.9683C348.299 36.6845 346.638 36.2552 344.122 36.3029C340.079 36.3794 337.95 38.0601 333.907 37.9969C332.648 37.9772 331.923 38.0312 330.693 37.7672C327.526 37.0877 327.251 34.7822 324.093 34.0633C322.713 33.749 321.531 32.7496 320.133 32.9721C317.586 33.3776 314.623 36.6186 314.623 36.6186L311.007 42.0166L308.395 50.3146Z" fill="#3D2C83"/>
<path d="M321.256 32.1807C318.563 32.6007 317.409 34.0991 315.301 35.8331C306.218 43.3065 307.923 65.0755 307.923 65.0755C307.923 65.0755 306.586 71.1779 305.984 75.132C305.457 78.5905 304.669 80.5417 304.941 84.0292C305.122 86.335 305.37 87.6503 306.154 89.8252C307.609 93.8609 309.018 96.2388 312.425 98.8373C315.096 100.875 317.096 101.302 320.315 102.256C323.671 103.251 325.66 103.72 329.16 103.704C332.926 103.686 334.992 102.868 338.642 101.935C341.949 101.089 346.967 99.2672 346.967 99.2672C346.967 99.2672 342.475 103.744 339.161 106.05C335.477 108.614 333.141 109.681 329.014 111.442C325.682 112.863 320.255 114.486 320.255 114.486C320.255 114.486 321.834 115.921 322.942 116.717C327.597 120.059 331.147 120.819 336.845 121.381C343.844 122.071 354.565 118.161 354.565 118.161L358.849 92.3682C358.849 92.3682 357.036 90.9256 356.191 89.7313C354.71 87.6385 354.198 83.4718 354.198 83.4718C354.198 83.4718 358.26 88.6238 361.943 88.9191C366.757 89.305 371.831 81.4697 371.831 81.4697C371.831 81.4697 375.257 73.5107 372.672 69.7035C371.386 67.8101 370.3 66.4963 368.048 66.1105C365.393 65.6557 364.046 67.5167 361.745 68.9225C359.543 70.2687 359.121 73.4211 356.57 73.0385C353.398 72.5625 354.348 68.343 354.289 65.1271C354.21 60.8507 357.248 59.0115 357.875 54.7805C358.132 53.0521 358.597 52.0175 358.194 50.3175C357.574 47.6948 354.504 47.6694 353.686 45.1016C352.915 42.6806 355.465 40.7824 354.15 38.6099C352.773 36.3338 350.39 36.7916 347.82 36.1184C341.337 34.42 337.134 38.7364 330.679 36.9323C326.711 35.8232 325.327 31.546 321.256 32.1807Z" fill="#FF9E85"/>
<path d="M137.155 473.632L163.62 461.716L163.983 451.35L193.762 441.906L192.918 483.96C193.329 490.919 193.829 497.419 193.829 497.419C193.829 497.419 172.912 501.351 161.742 503.47C151.506 505.412 145.82 506.843 135.533 508.457C124.997 510.109 108.445 511.787 108.445 511.787C108.445 511.787 102.207 508.933 100.637 505.315C98.9865 501.512 99.8742 498.528 101.533 494.65C104.26 488.275 110.04 487.717 115.994 484.007C123.804 479.141 137.155 473.632 137.155 473.632Z" fill="#CAA9FF"/>
<path d="M52.6663 456.109L82.6999 460.275L88.7874 451.034L120.378 459.334L95.8286 496.42C93.5331 498.914 86.1229 508.573 86.1229 508.573C86.1229 508.573 68.8715 501.672 57.8133 497.262C47.6803 493.22 41.8559 491.296 31.8604 486.927C21.623 482.451 6.05108 474.583 6.05108 474.583C6.05108 474.583 2.12133 468.441 2.74534 464.252C3.40124 459.848 5.84593 457.633 9.46995 455.041C15.428 450.779 20.8497 453.552 28.1796 453.552C37.7943 453.551 52.6663 456.109 52.6663 456.109Z" fill="#CAA9FF"/>
<path d="M364.448 326.594C364.448 326.594 364.243 351.437 356.461 364.379C348.481 377.649 340.504 384.615 325.783 389.641C316.501 392.81 310.6 392.64 300.788 392.296C288.475 391.863 281.746 389.196 269.951 385.65C254.413 380.981 246.311 376.522 231.654 369.59C216.071 362.219 192.703 348.846 192.703 348.846L193.926 459.351L191.556 458.374L181.384 458.454L149.396 462.224L145.021 438.091L144.073 429.757C134.137 446.084 118.768 469.725 118.768 469.725L78.2472 456.331L76.5714 457.019L79.5731 449.159C79.5731 449.159 85.2475 434.78 88.9828 425.606L89.2399 424.975C95.5925 409.373 99.2346 400.429 106.129 384.842C116.175 362.132 121.068 347.639 132.483 327.906L132.283 326.15C132.283 326.15 132.719 305.498 132.672 292.263C132.652 286.425 129.932 282.553 132.521 277.313C134.642 273.021 137.72 271.849 141.649 269.083C156.821 258.403 170.401 260.45 188.864 262.768C200.116 264.181 206.072 267.031 216.755 270.818C244.467 280.642 282.918 306.636 282.918 306.636L364.448 326.594Z" fill="#3D2C83"/>
<path d="M323.815 117.105C320.885 115.232 317.361 110.971 317.361 110.971L295.98 115.115C295.98 115.115 288.985 115.543 284.887 117.158C279.976 119.094 277.635 121.257 273.793 124.874C267.619 130.687 261.95 143.071 261.95 143.071C261.95 143.071 255.455 154.413 249.762 160.432C243.148 167.424 230.052 175.231 230.052 175.231L240.397 197.849L250.742 220.468L261.374 213.53C261.374 213.53 256.8 225.987 254.228 234.088C251.156 243.765 251.175 249.78 247.169 259.109C244.437 265.471 242.546 268.921 238.755 274.715C234.224 281.641 225.414 291.184 225.414 291.184C225.414 291.184 240.119 295.852 249.618 298.586C260.9 301.834 267.344 303.224 278.664 306.335C290.64 309.626 297.314 311.621 309.265 315.005C317.49 317.334 322.326 317.96 330.328 320.967C344.35 326.237 363.264 336.692 363.869 339.571C364.474 342.451 368.999 324.655 372.11 315.04C377.638 297.953 385.393 271.015 385.393 271.015C385.393 271.015 387.452 265.966 388.822 262.751C394.464 249.511 399.88 243.039 404.583 229.438C409.486 215.262 410.855 206.803 412.939 191.949C414.716 179.289 415.273 159.297 415.273 159.297C415.273 159.297 415.968 148.12 412.421 142.481C410.696 139.739 409.326 138.399 406.773 136.405C402.326 132.931 398.625 133.059 393.374 130.99C384.634 127.546 379.801 125.407 370.87 122.494C364.42 120.39 354.186 117.655 354.186 117.655C354.186 117.655 348.977 119.645 345.484 120.274C341.107 121.063 338.497 121.357 334.102 120.676C329.9 120.025 327.398 119.394 323.815 117.105Z" fill="#232323"/>
<path d="M309.695 186.725C309.925 185.966 310.28 185.347 310.757 184.868C311.246 184.382 311.81 184.066 312.45 183.919C313.09 183.772 313.762 183.806 314.468 184.021C315.361 184.292 316.032 184.731 316.482 185.336C316.944 185.935 317.158 186.658 317.125 187.506L315.477 187.005C315.455 186.599 315.327 186.248 315.095 185.953C314.863 185.658 314.523 185.442 314.077 185.307C313.452 185.116 312.884 185.188 312.373 185.52C311.874 185.846 311.503 186.407 311.262 187.201C311.02 187.996 311.014 188.672 311.245 189.23C311.484 189.791 311.916 190.166 312.541 190.356C313.425 190.625 314.128 190.414 314.65 189.724L316.298 190.225C315.855 190.91 315.272 191.386 314.547 191.654C313.824 191.912 313.025 191.908 312.15 191.642C311.445 191.428 310.867 191.081 310.418 190.603C309.971 190.116 309.678 189.539 309.539 188.873C309.412 188.2 309.464 187.484 309.695 186.725ZM328.326 188.235C328.906 188.411 329.388 188.689 329.77 189.069C330.161 189.451 330.414 189.918 330.529 190.47C330.653 191.025 330.613 191.637 330.409 192.307L329.085 196.66L327.572 196.2L328.826 192.075C329.027 191.414 329.016 190.859 328.791 190.41C328.569 189.953 328.173 189.637 327.601 189.463C327.03 189.289 326.52 189.329 326.072 189.583C325.636 189.831 325.317 190.285 325.116 190.946L323.862 195.072L322.348 194.611L323.603 190.486C323.804 189.825 323.792 189.27 323.567 188.822C323.345 188.364 322.949 188.048 322.377 187.875C321.806 187.701 321.296 187.741 320.848 187.995C320.412 188.243 320.093 188.697 319.892 189.358L318.638 193.483L317.111 193.019L319.355 185.639L320.882 186.103L320.626 186.947C320.968 186.719 321.357 186.579 321.792 186.526C322.228 186.473 322.665 186.513 323.102 186.646C323.691 186.825 324.18 187.111 324.569 187.502C324.957 187.893 325.204 188.363 325.31 188.913C325.669 188.534 326.125 188.287 326.677 188.172C327.231 188.048 327.781 188.069 328.326 188.235ZM335.57 187.804L332.555 197.715L331.028 197.251L334.043 187.339L335.57 187.804ZM335.184 194.447C335.409 193.706 335.76 193.095 336.238 192.616C336.724 192.14 337.278 191.825 337.9 191.673C338.534 191.514 339.172 191.533 339.815 191.728C340.395 191.905 340.864 192.174 341.222 192.537C341.592 192.893 341.855 193.28 342.01 193.699L342.336 192.627L343.877 193.095L341.632 200.476L340.092 200.007L340.426 198.909C340.061 199.178 339.62 199.361 339.103 199.458C338.586 199.554 338.042 199.516 337.47 199.342C336.836 199.149 336.305 198.812 335.876 198.33C335.449 197.839 335.168 197.256 335.032 196.581C334.908 195.899 334.958 195.188 335.184 194.447ZM341.216 196.31C341.371 195.801 341.398 195.327 341.298 194.887C341.207 194.449 341.021 194.081 340.742 193.781C340.462 193.481 340.126 193.272 339.733 193.152C339.34 193.033 338.944 193.02 338.545 193.113C338.149 193.197 337.786 193.394 337.458 193.704C337.141 194.008 336.905 194.414 336.751 194.923C336.596 195.432 336.563 195.91 336.651 196.356C336.749 196.805 336.936 197.184 337.213 197.493C337.502 197.795 337.838 198.005 338.222 198.122C338.615 198.241 339.011 198.254 339.41 198.161C339.809 198.068 340.168 197.865 340.487 197.552C340.819 197.233 341.061 196.819 341.216 196.31ZM347.075 195.268C347.443 194.99 347.884 194.807 348.398 194.719C348.924 194.625 349.464 194.663 350.018 194.831C350.669 195.029 351.211 195.365 351.643 195.838C352.075 196.31 352.354 196.883 352.481 197.556C352.611 198.22 352.564 198.922 352.338 199.663C352.113 200.404 351.759 201.024 351.276 201.521C350.796 202.009 350.238 202.336 349.601 202.504C348.977 202.665 348.343 202.648 347.7 202.453C347.129 202.279 346.653 202.012 346.275 201.653C345.905 201.297 345.644 200.905 345.491 200.478L345.165 201.55L343.638 201.086L346.652 191.174L348.179 191.638L347.075 195.268ZM350.784 199.191C350.939 198.682 350.965 198.212 350.862 197.78C350.771 197.343 350.579 196.977 350.288 196.684C350.009 196.384 349.672 196.175 349.28 196.055C348.896 195.939 348.5 195.925 348.092 196.016C347.693 196.109 347.329 196.311 347 196.621C346.681 196.933 346.444 197.344 346.289 197.853C346.134 198.362 346.101 198.84 346.19 199.286C346.29 199.726 346.48 200.096 346.76 200.396C347.048 200.698 347.384 200.908 347.768 201.025C348.161 201.144 348.557 201.157 348.956 201.064C349.367 200.965 349.733 200.754 350.056 200.432C350.387 200.114 350.63 199.7 350.784 199.191ZM355.358 204.781C354.778 204.605 354.286 204.343 353.885 203.997C353.494 203.644 353.22 203.248 353.06 202.81C352.904 202.362 352.884 201.912 353.002 201.46L354.583 201.941C354.515 202.262 354.582 202.57 354.785 202.866C354.999 203.155 355.312 203.362 355.722 203.487C356.151 203.618 356.506 203.638 356.787 203.548C357.079 203.451 357.265 203.274 357.344 203.015C357.428 202.738 357.357 202.492 357.129 202.276C356.911 202.064 356.541 201.79 356.018 201.455C355.511 201.135 355.105 200.851 354.8 200.602C354.495 200.353 354.258 200.042 354.089 199.669C353.928 199.298 353.921 198.872 354.068 198.389C354.187 197.997 354.412 197.675 354.742 197.424C355.075 197.164 355.484 197.006 355.969 196.948C356.464 196.894 356.993 196.952 357.555 197.123C358.394 197.378 359.004 197.798 359.382 198.381C359.772 198.958 359.874 199.619 359.687 200.362L358.16 199.897C358.234 199.559 358.18 199.255 357.999 198.985C357.817 198.715 357.521 198.518 357.111 198.393C356.709 198.271 356.378 198.253 356.117 198.339C355.857 198.426 355.688 198.594 355.612 198.844C355.553 199.041 355.574 199.228 355.676 199.405C355.778 199.583 355.92 199.743 356.101 199.886C356.284 200.019 356.559 200.206 356.926 200.444C357.418 200.75 357.811 201.03 358.104 201.285C358.409 201.534 358.643 201.839 358.806 202.201C358.969 202.563 358.983 202.981 358.848 203.457C358.721 203.877 358.49 204.217 358.158 204.477C357.825 204.736 357.416 204.895 356.93 204.952C356.454 205.012 355.93 204.955 355.358 204.781Z" fill="white"/>
<path d="M263.329 212.92L269.329 190.42L276.829 168.42" stroke="white"/>
<path d="M125.357 175.525C124.789 169.046 130.457 163.758 136.88 164.773L200.702 174.865C205.199 175.576 208.647 179.234 209.092 183.765L218.325 277.774C218.965 284.283 213.285 289.644 206.823 288.63L142.009 278.461C137.469 277.749 133.999 274.034 133.597 269.456L125.357 175.525Z" fill="#CCC8E8"/>
<rect width="79.8334" height="35.8937" rx="2" transform="matrix(0.986385 0.164453 -0.164529 0.986372 214.68 253.535)" fill="#CCC8E8"/>
<path d="M317.9 249.009C334.143 245.416 358.864 237.305 358.864 237.305L372.724 219.193L405.907 225.63L399.94 241.054C399.94 241.054 397.282 249.71 394.118 254.457C387.499 264.388 379.632 266.441 368.967 271.762C356.39 278.037 348.318 279.42 334.57 282.31C318.107 285.77 308.516 285.932 291.707 286.562C279.059 287.036 259.3 286.278 259.3 286.278C259.3 286.278 258.017 284.817 257.025 284.083C253.701 281.622 250.229 284.149 246.627 282.12C242.34 279.707 238.823 272.214 238.823 272.214L216.384 268.578L215.611 251.046C215.611 251.046 229.278 249.566 237.935 250.61C245.409 251.511 256.658 255.199 256.658 255.199C256.658 255.199 269.499 255.859 277.715 255.485C293.592 254.762 302.378 252.443 317.9 249.009Z" fill="#FF9E85"/>
<path d="M269.829 304.42L203.829 294.42C203.829 294.42 185.093 291.939 175.829 291.42C170.175 291.103 166.87 290.255 161.329 291.42C144.199 295.019 133.329 326.42 133.329 326.42" stroke="white"/>
<path d="M225.329 185.92C225.329 185.92 228.759 189.524 229.829 192.42C231.318 196.45 229.829 203.42 229.829 203.42" stroke="#FF7D65"/>
<path d="M358.738 237.577C358.738 237.577 360.699 239.048 361.662 240.457C363.001 242.416 363.841 246.352 363.841 246.352" stroke="#FF7D65"/>
<path d="M147.041 110.091C147.041 110.091 148.845 105.297 152.258 102.027C153.866 100.487 157.823 98.2354 159.817 97.2449C163.383 95.473 169.616 94.749 169.616 94.749" stroke="#FF7D65" stroke-width="2" stroke-linecap="round"/>
<path d="M167.218 104.166C167.885 106.29 168.149 110.834 168.152 113.061C168.159 117.043 165.692 123.887 165.692 123.887" stroke="#FF7D65" stroke-width="2" stroke-linecap="round"/>
<rect width="20.1704" height="20.6255" transform="matrix(0.948214 0.317631 -0.306581 0.951845 291.662 167.9)" fill="#18A0FB"/>
<path d="M297.343 178.281L299.419 177.531L301.837 180.663L298.009 182.109M298.009 182.109L296.598 186.687M298.009 182.109L294.611 178.663M296.598 186.687L293.244 183.098L294.611 178.663M296.598 186.687L300.523 185.429M294.611 178.663L292.34 176.05L289.828 184.205L293.278 187.981M294.557 175.345L300.285 173.722L304.59 178.715M303.701 181.102L305.917 180.397L303.537 188.123L298.273 189.738" stroke="white" stroke-width="1.5"/>
<defs>
<filter id="filter0_d_1169_18785" x="313.741" y="98.1826" width="39.1064" height="26.0244" filterUnits="userSpaceOnUse" color-interpolation-filters="sRGB">
<feFlood flood-opacity="0" result="BackgroundImageFix"/>
<feColorMatrix in="SourceAlpha" type="matrix" values="0 0 0 0 0 0 0 0 0 0 0 0 0 0 0 0 0 0 127 0" result="hardAlpha"/>
<feOffset dy="4"/>
<feGaussianBlur stdDeviation="2"/>
<feComposite in2="hardAlpha" operator="out"/>
<feColorMatrix type="matrix" values="0 0 0 0 0 0 0 0 0 0 0 0 0 0 0 0 0 0 0.25 0"/>
<feBlend mode="normal" in2="BackgroundImageFix" result="effect1_dropShadow_1169_18785"/>
<feBlend mode="normal" in="SourceGraphic" in2="effect1_dropShadow_1169_18785" result="shape"/>
</filter>
</defs>
</svg>
