<svg width="722" height="749" viewBox="0 0 722 749" fill="none" xmlns="http://www.w3.org/2000/svg">
<path d="M23.2685 323.117L90.3246 412.967M51.3091 409.233L61.8092 409.079C75.8036 408.882 90.5326 397.89 94.711 384.524C98.8893 371.158 90.932 360.496 76.9299 360.699C69.9338 360.791 62.7533 363.596 56.7966 368.042C51.1733 372.239 44.3208 374.788 37.5784 374.702C24.0883 374.523 16.1309 363.86 19.7974 350.877C23.4639 337.893 37.3785 327.509 50.8687 327.688L55.9315 327.757" stroke="#2B8E58" stroke-width="15" stroke-linecap="round" stroke-linejoin="round"/>
<path d="M432.172 231.369L407.581 340.753M385.029 308.698L391.978 316.571C401.234 327.069 419.165 331.1 432.033 325.576C444.901 320.051 447.819 307.071 438.554 296.571C433.931 291.318 427.128 287.692 419.877 286.061C413.031 284.522 406.636 280.978 402.314 275.802C393.672 265.442 396.59 252.462 408.835 246.797C421.079 241.133 438.019 244.941 446.661 255.301L449.903 259.19" stroke="#2B8E58" stroke-width="15" stroke-linecap="round" stroke-linejoin="round"/>
<rect x="149.254" y="251.037" width="118.945" height="48.0337" rx="10" transform="rotate(-13.0855 149.254 251.037)" fill="#8AB500"/>
<path d="M64.2539 289.107C65.8033 286.251 71.2539 284.607 71.2539 284.607L353.254 219.107L495.754 625.607C495.754 625.607 239.644 691.388 239.254 690.607L238.254 688.607C237.863 687.826 232.148 689.64 229.254 687.607C226.538 685.699 226.445 683.206 225.254 680.107C224.523 678.204 223.97 677.135 223.754 675.107C223.63 673.942 223.698 673.278 223.754 672.107C223.877 669.542 224.522 668.165 224.754 665.607C225.088 661.913 224.754 656.107 224.754 656.107C224.754 656.107 224.525 649.654 223.754 645.607C223.071 642.024 222.591 640.001 221.254 636.607C219.62 632.461 218.332 630.243 215.754 626.607C213.99 624.119 212.806 622.864 210.754 620.607C208.524 618.156 207.246 616.791 204.754 614.607C202.345 612.497 200.792 611.17 198.254 609.607L191.754 605.607C189.215 604.045 185.858 602.33 181.754 601.107C175.739 599.316 172.027 599.794 165.754 599.607C162.826 599.52 161.156 599.215 158.254 599.607C155.86 599.931 152.254 601.107 152.254 601.107L63.2539 294.107C63.2539 294.107 63.3045 290.858 64.2539 289.107Z" fill="#CAA9FF"/>
<path d="M71.2539 286.607L165.754 599.607" stroke="#322B64"/>
<g filter="url(#filter0_d_1167_18784)">
<rect width="244.487" height="161.614" rx="20" transform="matrix(0.993372 0.114944 -0.0540551 0.998538 307.224 19.8242)" fill="#F0F2F5"/>
</g>
<rect width="28.9211" height="58.68" rx="10" transform="matrix(0.991913 0.12692 -0.059833 0.998208 313.62 112.022)" fill="#CAA9FF"/>
<rect width="29.854" height="77.4006" rx="10" transform="matrix(0.991913 0.12692 -0.059833 0.998208 352.682 98.1904)" fill="#5A4FB5"/>
<rect width="28.9211" height="85.9315" rx="10" transform="matrix(0.991913 0.12692 -0.059833 0.998208 392.058 94.6475)" fill="#C7FB00"/>
<rect width="28.9211" height="100.7" rx="10" transform="matrix(0.991913 0.12692 -0.059833 0.998208 430.883 84.7598)" fill="#CAA9FF"/>
<rect width="29.854" height="121.828" rx="10" transform="matrix(0.991913 0.12692 -0.059833 0.998208 470.087 68.5254)" fill="#5A4FB5"/>
<rect width="28.9211" height="134.61" rx="10" transform="matrix(0.991913 0.12692 -0.059833 0.998208 509.72 60.7393)" fill="#C7FB00"/>
<path d="M384.239 77.8994L382.767 77.9592L382.724 80.086L384.68 79.3267L384.239 77.8994ZM458.938 50.0287C459.314 49.2585 459.035 48.3548 458.314 48.0102L446.571 42.3959C445.85 42.0514 444.961 42.3965 444.585 43.1667C444.21 43.937 444.489 44.8407 445.21 45.1852L455.648 50.1757L450.203 61.3329C449.827 62.1031 450.106 63.0068 450.827 63.3513C451.548 63.6958 452.437 63.3507 452.813 62.5805L458.938 50.0287ZM384.534 63.3428L386.005 63.283L386.049 61.116L384.068 61.9254L384.534 63.3428ZM384.239 77.8994L384.68 79.3267L458.075 50.8322L457.634 49.4049L457.192 47.9776L383.797 76.4721L384.239 77.8994ZM306.405 95.2569L306.871 96.6743L385 64.7602L384.534 63.3428L384.068 61.9254L305.939 93.8395L306.405 95.2569ZM384.534 63.3428L383.063 63.4026L382.767 77.9592L384.239 77.8994L385.71 77.8396L386.005 63.283L384.534 63.3428Z" fill="#322B64"/>
<circle cx="169.754" cy="656.967" r="58.5" fill="#C7FB00"/>
<path d="M185.859 713.076L225.638 670.897L232.71 686.865L198.267 719.01L185.859 713.076Z" fill="#C7FB00"/>
<rect x="192.62" y="724.232" width="62.0211" height="10.9787" rx="5.48937" transform="rotate(-43 192.62 724.232)" fill="#DDE2F8"/>
<rect x="202.254" y="727.514" width="54.3219" height="10.9787" rx="5.48937" transform="rotate(-43 202.254 727.514)" fill="#DDE2F8"/>
<rect x="211.712" y="729.26" width="43.6845" height="10.9787" rx="5.48937" transform="rotate(-43 211.712 729.26)" fill="#DDE2F8"/>
<rect x="204.206" y="728.247" width="52.2334" height="0.633364" rx="0.316682" transform="rotate(-43 204.206 728.247)" fill="#322B64"/>
<rect x="213.986" y="731.311" width="43.0153" height="0.63" rx="0.315" transform="rotate(-43 213.986 731.311)" fill="#322B64"/>
<path d="M207.754 709.967C180.154 687.167 160.753 687.467 156.754 681.967C152.754 676.467 153.33 664.786 160.753 660.967C163.07 659.775 164.648 659.493 167.253 659.467C172.408 659.415 175.963 660.999 179.253 664.967C181.895 668.152 185.754 672.118 182.753 674.967C180.488 677.118 177.694 676.022 174.753 674.967C168.915 672.873 165.907 667.021 167.253 660.967C168.485 655.426 172.845 653.189 178.253 651.467C184.069 649.615 189.099 649.519 193.753 653.467C196.951 656.179 201.305 659.64 198.753 662.967C196.365 666.081 192.047 664.102 188.753 661.967C184.4 659.144 183.023 654.507 184.253 649.467C185.208 645.556 187.022 642.976 190.753 641.467C193.65 640.295 195.77 640.541 198.753 641.467C206.178 643.77 207.253 656.967 207.253 659.467C207.254 661.967 224.254 694.467 224.254 694.467" stroke="black" stroke-width="2"/>
<path d="M141.611 662.795C155.186 684.264 143.823 685.725 135.868 684.876C127.913 684.028 115.499 672.57 117.134 656.354C118.768 640.138 126.995 626.647 134.782 627.432C147.31 629.65 136.593 645.491 139.721 656.62C140.403 659.048 140.875 661.716 141.611 662.795Z" fill="#F1FF92"/>
<path d="M165.704 607.805C165.704 607.805 175.684 607.526 181.851 608.655C187.976 609.775 191.537 611.468 197.199 615.117C202.575 618.581 205.184 621.491 209.768 626.308C215.014 631.821 219.331 643.023 219.331 643.023" stroke="white" stroke-width="2"/>
<path d="M155.234 488.751C146.636 474.414 143.008 465.413 138.734 449.251C119.889 377.992 287.234 565.751 287.234 565.751C287.234 565.751 301.616 620.966 280.734 642.751C275.032 648.7 271.566 652.689 263.734 655.251C255.94 657.802 242.734 655.251 242.734 655.251C242.734 655.251 259.738 630.375 260.234 612.251C260.686 595.705 257.177 585.346 247.734 571.751C239.347 559.678 230.39 556.709 218.734 547.751C205.289 537.419 195.678 534.269 183.234 522.751C170.61 511.068 164.08 503.503 155.234 488.751Z" fill="#B382FE"/>
<path d="M123.754 407.607C104.267 359.989 85.2539 281.607 85.2539 281.607L372.254 208.107C372.254 208.107 385.917 266.904 398.254 303.107C407.682 330.775 412.754 348.107 426.254 372.107C436.887 391.01 447.184 399.228 464.254 412.607C482.754 427.107 497.521 432.518 515.754 449.107C528.734 460.917 537.929 466.659 546.254 482.107C557.142 502.313 554.4 517.195 555.754 540.107C557.091 562.739 553.254 598.107 553.254 598.107L269.254 667.607C269.254 667.607 287.467 625.223 282.254 598.107C278.081 576.406 272.325 562.729 255.754 548.107C230.254 525.607 211.94 526.847 188.754 506.607C170.833 490.964 161.207 481.06 148.254 461.107C135.742 441.833 132.457 428.875 123.754 407.607Z" fill="#F0F2F5" stroke="#322B64" stroke-width="1.5"/>
<rect x="153.459" y="246.75" width="118.945" height="48.0337" rx="10" transform="rotate(-13.0855 153.459 246.75)" fill="#C7FB00"/>
<path d="M180.776 229.503C179.688 228.385 180.242 226.507 181.764 226.159L235.509 213.873C237.037 213.524 238.354 214.986 237.848 216.469L234.134 227.343C233.912 227.993 233.373 228.483 232.705 228.642L190.991 238.6C190.305 238.763 189.585 238.554 189.093 238.049L180.776 229.503Z" fill="#C7FB00"/>
<line x1="189.146" y1="238.62" x2="234.146" y2="228.62" stroke="#322B64"/>
<rect x="141.254" y="351.664" width="40" height="40" rx="10" transform="rotate(-16.7892 141.254 351.664)" fill="#CCC8E8"/>
<path d="M179.066 418.147C176.064 412.578 178.923 405.656 184.98 403.828L203.58 398.216C208.198 396.823 213.151 398.924 215.359 403.212L224.959 421.855C227.916 427.597 224.735 434.595 218.464 436.142L199.776 440.753C195.348 441.846 190.742 439.804 188.578 435.79L179.066 418.147Z" fill="#CCC8E8"/>
<path d="M229.488 473.25C224.341 467.855 226.696 458.927 233.835 456.774L250.19 451.839C254.043 450.677 258.217 451.937 260.783 455.037L274.861 472.05C279.619 477.8 276.63 486.546 269.349 488.182L253.775 491.68C250.35 492.45 246.771 491.367 244.348 488.826L229.488 473.25Z" fill="#CCC8E8"/>
<path d="M281.911 525.305C277.713 519.75 280.335 511.713 287 509.702L304.686 504.366C308.789 503.128 313.224 504.642 315.714 508.13L328.203 525.628C332.305 531.375 329.321 539.448 322.467 541.145L304.79 545.521C300.906 546.483 296.822 545.036 294.409 541.843L281.911 525.305Z" fill="#CCC8E8"/>
<path d="M314.816 581.14C314.134 576.258 317.112 571.607 321.831 570.183L341.296 564.31C346.978 562.596 352.894 566.179 354.007 572.01L358.415 595.11C359.386 600.2 356.308 605.189 351.324 606.604L330.677 612.467C324.839 614.124 318.882 610.241 318.042 604.231L314.816 581.14Z" fill="#CCC8E8"/>
<path d="M140.515 358.544L161.091 367.215L174.024 328.528C174.024 328.528 174.818 326.558 175.787 325.859C176.775 325.147 177.57 324.987 178.727 325.192C179.741 325.373 180.328 325.731 181.078 326.527C181.683 327.168 182.254 328.528 182.254 328.528L166.969 377.221C166.969 377.221 166.817 378.563 166.381 379.222C165.407 380.696 162.266 379.889 162.266 379.889L138.164 365.881C138.164 365.881 136.597 362.328 137.576 360.545C138.284 359.256 140.515 358.544 140.515 358.544Z" fill="#C7FB00"/>
<rect x="226.306" y="403.164" width="166.747" height="8" rx="4" transform="rotate(-15.4 226.306 403.164)" fill="#D9D9D9"/>
<rect x="230.872" y="417.227" width="132.458" height="8" rx="4" transform="rotate(-15.4029 230.872 417.227)" fill="#D9D9D9"/>
<rect x="279.254" y="454.391" width="166.747" height="8" rx="4" transform="rotate(-15.4 279.254 454.391)" fill="#D9D9D9"/>
<rect x="283.82" y="468.453" width="132.458" height="8" rx="4" transform="rotate(-15.4029 283.82 468.453)" fill="#D9D9D9"/>
<rect x="332.254" y="502.391" width="166.747" height="8" rx="4" transform="rotate(-15.4 332.254 502.391)" fill="#D9D9D9"/>
<rect x="336.82" y="516.449" width="132.458" height="8" rx="4" transform="rotate(-15.4029 336.82 516.449)" fill="#D9D9D9"/>
<rect x="369.254" y="564.384" width="166.747" height="8" rx="4" transform="rotate(-15.4 369.254 564.384)" fill="#D9D9D9"/>
<rect x="373.82" y="578.446" width="132.458" height="8" rx="4" transform="rotate(-15.4029 373.82 578.446)" fill="#D9D9D9"/>
<path d="M221.927 359.378L219.073 357.152C218.49 357.446 217.906 357.673 217.319 357.835C215.792 358.255 214.291 358.287 212.815 357.93C211.355 357.569 210.072 356.86 208.968 355.803C207.875 354.727 207.11 353.394 206.672 351.806C206.235 350.217 206.212 348.688 206.604 347.219C207.011 345.746 207.75 344.48 208.819 343.422C209.904 342.36 211.21 341.619 212.737 341.198C214.264 340.777 215.758 340.748 217.218 341.109C218.694 341.466 219.969 342.177 221.042 343.242C222.131 344.303 222.894 345.628 223.332 347.217C223.714 348.605 223.779 349.956 223.527 351.27C223.286 352.565 222.769 353.728 221.974 354.76L226.717 358.059L221.927 359.378ZM210.721 350.69C211.116 352.125 211.819 353.168 212.828 353.819C213.848 354.451 215.014 354.586 216.325 354.225C217.621 353.868 218.536 353.151 219.069 352.075C219.618 350.995 219.697 349.745 219.306 348.326C218.91 346.891 218.203 345.858 217.182 345.226C216.173 344.575 215.021 344.428 213.725 344.785C212.414 345.146 211.482 345.859 210.929 346.924C210.391 347.985 210.322 349.24 210.721 350.69ZM237.021 338.343L240.577 351.254L236.62 352.344L236.136 350.585C235.892 351.267 235.472 351.88 234.876 352.426C234.29 352.953 233.581 353.33 232.748 353.56C231.761 353.832 230.83 353.856 229.955 353.632C229.076 353.393 228.314 352.914 227.668 352.196C227.022 351.478 226.544 350.556 226.234 349.43L224.156 341.886L228.089 340.803L230.021 347.814C230.258 348.678 230.667 349.287 231.246 349.642C231.825 349.997 232.493 350.07 233.248 349.862C234.02 349.65 234.563 349.243 234.879 348.641C235.194 348.04 235.233 347.307 234.995 346.444L233.064 339.433L237.021 338.343ZM240.848 344.209C240.482 342.883 240.409 341.65 240.626 340.511C240.859 339.369 241.333 338.408 242.048 337.63C242.763 336.852 243.653 336.317 244.717 336.024C245.627 335.773 246.473 335.739 247.253 335.923C248.049 336.102 248.715 336.441 249.251 336.941L248.748 335.113L252.705 334.023L256.261 346.934L252.304 348.024L251.801 346.196C251.581 346.904 251.175 347.538 250.583 348.1C250.006 348.657 249.262 349.061 248.352 349.312C247.303 349.6 246.273 349.594 245.26 349.292C244.243 348.975 243.342 348.385 242.557 347.522C241.783 346.64 241.213 345.536 240.848 344.209ZM250.526 341.568C250.254 340.581 249.762 339.879 249.049 339.461C248.352 339.039 247.61 338.936 246.824 339.153C246.037 339.369 245.445 339.84 245.046 340.563C244.66 341.267 244.602 342.113 244.874 343.1C245.146 344.087 245.633 344.8 246.334 345.237C247.046 345.655 247.796 345.756 248.583 345.539C249.369 345.322 249.954 344.854 250.337 344.135C250.735 343.411 250.798 342.556 250.526 341.568ZM258.364 327.933L263.08 345.056L259.123 346.146L254.407 329.023L258.364 327.933ZM264.011 329.465C263.317 329.656 262.691 329.613 262.133 329.335C261.587 329.037 261.23 328.588 261.065 327.986C260.895 327.369 260.971 326.8 261.292 326.28C261.625 325.741 262.138 325.375 262.832 325.184C263.511 324.997 264.124 325.052 264.67 325.35C265.228 325.628 265.592 326.075 265.762 326.692C265.928 327.294 265.844 327.864 265.511 328.404C265.19 328.924 264.69 329.278 264.011 329.465ZM266.348 330.265L269.904 343.176L265.947 344.266L262.391 331.355L266.348 330.265ZM276.599 330.976L274.47 331.563L277.121 341.188L273.165 342.278L270.513 332.652L269.079 333.048L268.174 329.762L269.608 329.367L269.506 328.997C269.069 327.408 269.192 326.079 269.877 325.011C270.558 323.927 271.778 323.143 273.536 322.659C273.829 322.578 274.047 322.526 274.19 322.504L275.114 325.859C274.346 326.021 273.843 326.275 273.607 326.622C273.371 326.97 273.346 327.483 273.533 328.161L273.565 328.277L275.694 327.691L276.599 330.976ZM279.173 325.288C278.479 325.48 277.853 325.436 277.295 325.158C276.749 324.861 276.392 324.411 276.227 323.81C276.057 323.193 276.132 322.624 276.454 322.104C276.787 321.564 277.3 321.199 277.994 321.008C278.673 320.821 279.285 320.876 279.832 321.174C280.39 321.451 280.754 321.899 280.924 322.516C281.089 323.118 281.006 323.688 280.673 324.228C280.352 324.748 279.852 325.101 279.173 325.288ZM281.51 326.089L285.066 339L281.109 340.09L277.553 327.178L281.51 326.089ZM298.268 328.194C298.37 328.564 298.453 328.956 298.518 329.37L289.563 331.836C289.846 332.621 290.27 333.168 290.837 333.477C291.414 333.766 292.034 333.819 292.698 333.637C293.685 333.365 294.257 332.759 294.413 331.82L298.624 330.66C298.642 331.568 298.459 332.44 298.075 333.276C297.707 334.107 297.151 334.833 296.409 335.452C295.667 336.071 294.771 336.526 293.723 336.815C292.458 337.163 291.257 337.203 290.121 336.935C288.985 336.667 288.002 336.108 287.17 335.259C286.339 334.409 285.738 333.313 285.368 331.971C284.999 330.629 284.946 329.382 285.209 328.231C285.489 327.075 286.047 326.092 286.886 325.28C287.724 324.468 288.784 323.886 290.064 323.533C291.314 323.189 292.497 323.145 293.613 323.402C294.729 323.659 295.691 324.199 296.499 325.022C297.322 325.841 297.912 326.898 298.268 328.194ZM293.932 328.268C293.745 327.589 293.365 327.113 292.792 326.839C292.219 326.566 291.585 326.525 290.891 326.716C290.228 326.899 289.718 327.246 289.361 327.76C289.02 328.268 288.893 328.892 288.981 329.632L293.932 328.268ZM299.62 328.021C299.255 326.694 299.181 325.461 299.398 324.323C299.631 323.18 300.105 322.22 300.82 321.442C301.535 320.664 302.425 320.128 303.489 319.835C304.338 319.602 305.158 319.567 305.95 319.73C306.757 319.889 307.444 320.215 308.011 320.706L306.36 314.713L310.317 313.623L315.033 330.745L311.076 331.835L310.567 329.984C310.366 330.703 309.97 331.343 309.378 331.905C308.801 332.462 308.058 332.866 307.148 333.117C306.083 333.41 305.045 333.405 304.032 333.103C303.015 332.786 302.114 332.196 301.329 331.334C300.555 330.452 299.985 329.347 299.62 328.021ZM309.298 325.38C309.026 324.393 308.534 323.69 307.822 323.272C307.124 322.85 306.383 322.748 305.596 322.964C304.809 323.181 304.217 323.651 303.819 324.375C303.432 325.079 303.374 325.924 303.646 326.912C303.918 327.899 304.405 328.611 305.106 329.049C305.819 329.467 306.568 329.567 307.355 329.35C308.142 329.134 308.726 328.666 309.109 327.946C309.507 327.222 309.57 326.367 309.298 325.38Z" fill="#3D2C83"/>
<path d="M42.2462 150.248C47.558 136.792 58.0309 125.937 71.6045 119.817C85.1781 113.697 100.87 112.757 115.593 117.18L107.558 145.019C100.197 142.808 92.351 143.278 85.5641 146.338C78.7773 149.398 73.5409 154.825 70.885 161.553L42.2462 150.248Z" fill="#F1FF92"/>
<path d="M126.55 113.015C134.072 115.984 140.97 120.318 146.85 125.769C152.731 131.219 157.478 137.68 160.822 144.783L133.052 155.836C131.381 152.285 129.007 149.055 126.066 146.329C123.126 143.604 119.677 141.437 115.916 139.952L126.55 113.015Z" fill="#3D2C83"/>
<path d="M157.336 156.283C160.802 166.107 161.542 176.522 159.482 186.485C157.421 196.447 152.632 205.606 145.596 213.043L122.56 192.951C126.078 189.232 128.472 184.653 129.503 179.672C130.533 174.69 130.163 169.483 128.43 164.571L157.336 156.283Z" fill="#C7FB00"/>
<path d="M150.223 207.465C144.244 215.719 136.033 222.233 126.413 226.353C116.793 230.473 106.102 232.054 95.4133 230.938L97.4685 201.898C102.813 202.457 108.158 201.666 112.968 199.606C117.778 197.546 121.884 194.289 124.873 190.162L150.223 207.465Z" fill="#8AB500"/>
<path d="M96.6593 231.056C87.1018 230.245 77.7832 227.305 69.4541 222.473C61.1251 217.641 54.0183 211.051 48.7063 203.236C43.3943 195.42 40.0256 186.596 38.8714 177.475C37.7173 168.353 38.81 159.19 42.0615 150.722L70.7926 161.791C69.1669 166.024 68.6205 170.606 69.1976 175.167C69.7747 179.727 71.4591 184.139 74.1151 188.047C76.771 191.955 80.3244 195.25 84.489 197.666C88.6535 200.082 93.3128 201.552 98.0916 201.957L96.6593 231.056Z" fill="#688902"/>
<path fill-rule="evenodd" clip-rule="evenodd" d="M51.7145 517.056L106.245 538.138C114.132 524.902 121.437 500.659 128.69 475.418L73.7161 454.871C66.5436 478.29 59.8434 500.496 51.7145 517.056Z" fill="#8AB500"/>
<path d="M81.0826 481.072L84.4261 482.189L83.989 483.498L79.0235 481.839L82.3257 471.951L83.9477 472.493L81.0826 481.072ZM88.703 485.214C87.9632 484.967 87.3499 484.578 86.8632 484.046C86.3797 483.505 86.0685 482.874 85.9298 482.153C85.7942 481.423 85.8611 480.654 86.1303 479.848C86.3964 479.051 86.8078 478.403 87.3647 477.904C87.9215 477.404 88.5589 477.09 89.2768 476.961C89.9947 476.832 90.7283 476.892 91.4776 477.142C92.227 477.393 92.8497 477.785 93.3459 478.32C93.8421 478.855 94.1627 479.489 94.3077 480.222C94.4528 480.956 94.3923 481.721 94.1262 482.518C93.8601 483.315 93.4439 483.961 92.8776 484.458C92.3113 484.954 91.6581 485.268 90.9181 485.4C90.1907 485.526 89.4523 485.464 88.703 485.214ZM89.1734 483.806C89.5907 483.945 90.0129 483.975 90.4398 483.896C90.8763 483.821 91.2748 483.622 91.6355 483.299C91.9962 482.977 92.2715 482.531 92.4616 481.962C92.6516 481.393 92.7025 480.878 92.6142 480.416C92.5291 479.945 92.3396 479.549 92.0457 479.23C91.7518 478.91 91.3961 478.681 90.9788 478.541C90.5615 478.402 90.1393 478.372 89.7124 478.451C89.2949 478.533 88.9153 478.738 88.5736 479.067C88.2351 479.386 87.9708 479.83 87.7807 480.399C87.4988 481.243 87.4936 481.969 87.7653 482.576C88.0495 483.177 88.5189 483.587 89.1734 483.806ZM97.221 488.059C96.6045 487.853 96.086 487.559 95.6656 487.176C95.2579 486.786 94.9751 486.355 94.8173 485.88C94.6626 485.396 94.655 484.914 94.7944 484.433L96.4732 484.994C96.3908 485.336 96.4539 485.668 96.6624 485.99C96.8836 486.307 97.2123 486.538 97.6487 486.683C98.1039 486.835 98.4834 486.867 98.787 486.779C99.1033 486.684 99.3074 486.499 99.3992 486.224C99.4974 485.93 99.428 485.665 99.191 485.427C98.9634 485.193 98.5746 484.889 98.0246 484.516C97.4904 484.158 97.0636 483.842 96.7444 483.567C96.4252 483.291 96.1803 482.951 96.0097 482.546C95.8487 482.145 95.8537 481.688 96.0247 481.175C96.1641 480.758 96.4141 480.42 96.7748 480.161C97.1386 479.892 97.5814 479.734 98.1032 479.687C98.6345 479.643 99.1989 479.721 99.7965 479.921C100.688 480.218 101.328 480.685 101.717 481.321C102.118 481.95 102.208 482.66 101.986 483.451L100.364 482.909C100.453 482.549 100.404 482.221 100.218 481.927C100.031 481.633 99.7197 481.413 99.2834 481.267C98.8566 481.125 98.5024 481.096 98.2209 481.181C97.9394 481.267 97.7544 481.442 97.6657 481.708C97.596 481.916 97.6133 482.117 97.7175 482.31C97.8218 482.503 97.9687 482.679 98.1584 482.837C98.3512 482.986 98.6404 483.193 99.0261 483.459C99.5445 483.8 99.957 484.112 100.264 484.394C100.583 484.669 100.825 485.003 100.989 485.395C101.153 485.787 101.156 486.236 100.997 486.742C100.849 487.188 100.592 487.545 100.228 487.814C99.8646 488.082 99.4218 488.24 98.9 488.287C98.3877 488.338 97.828 488.262 97.221 488.059ZM106.087 483.634L104.638 487.974C104.539 488.268 104.534 488.503 104.623 488.68C104.724 488.851 104.941 488.992 105.273 489.103L106.268 489.436L105.817 490.787L104.537 490.36C103.806 490.116 103.304 489.758 103.029 489.287C102.754 488.815 102.745 488.196 103.001 487.427L104.451 483.088L103.526 482.779L103.968 481.456L104.892 481.765L105.543 479.815L107.18 480.362L106.529 482.311L108.435 482.948L107.993 484.271L106.087 483.634Z" fill="white"/>
<path fill-rule="evenodd" clip-rule="evenodd" d="M577.184 221.663L637.677 184.119C630.877 167.612 613.138 144.17 594.407 120.099L534.097 158.43C551.148 181.184 567.39 202.664 577.184 221.663Z" fill="#D40C00"/>
<path d="M554.664 161.809C555.585 161.19 556.51 160.827 557.439 160.721C558.37 160.601 559.246 160.748 560.066 161.161C560.889 161.56 561.596 162.199 562.187 163.079C562.778 163.959 563.101 164.85 563.154 165.754C563.216 166.653 563.015 167.51 562.552 168.327C562.092 169.13 561.401 169.842 560.48 170.461L557.654 172.36L551.837 163.708L554.664 161.809ZM559.702 169.303C560.714 168.622 561.306 167.827 561.478 166.917C561.649 166.007 561.4 165.054 560.73 164.058C560.055 163.054 559.258 162.451 558.339 162.249C557.42 162.047 556.455 162.286 555.442 162.967L554.035 163.912L558.295 170.248L559.702 169.303ZM570.35 158.606C570.523 158.863 570.662 159.107 570.769 159.337L565.527 162.859C565.937 163.378 566.436 163.682 567.024 163.768C567.613 163.855 568.172 163.72 568.704 163.363C569.467 162.85 569.792 162.168 569.678 161.317L571.209 160.288C571.426 161.058 571.397 161.83 571.122 162.605C570.851 163.366 570.312 164.017 569.507 164.558C568.851 164.998 568.164 165.249 567.446 165.31C566.731 165.357 566.045 165.215 565.389 164.885C564.736 164.541 564.172 164.016 563.698 163.311C563.224 162.605 562.949 161.892 562.874 161.171C562.802 160.437 562.926 159.751 563.245 159.115C563.573 158.473 564.073 157.926 564.745 157.475C565.393 157.04 566.064 156.793 566.76 156.735C567.456 156.677 568.118 156.81 568.746 157.135C569.369 157.452 569.903 157.942 570.35 158.606ZM568.567 159.153C568.207 158.636 567.739 158.343 567.161 158.273C566.584 158.203 566.026 158.349 565.486 158.711C564.997 159.041 564.683 159.48 564.547 160.029C564.405 160.571 564.479 161.129 564.77 161.705L568.567 159.153ZM569.392 151.1L575.585 160.311L574.165 161.265L567.972 152.053L569.392 151.1ZM581.317 151.237C581.49 151.494 581.629 151.738 581.736 151.967L576.494 155.49C576.904 156.009 577.403 156.313 577.991 156.399C578.58 156.486 579.139 156.35 579.671 155.994C580.434 155.48 580.759 154.798 580.645 153.947L582.176 152.918C582.393 153.689 582.364 154.461 582.089 155.236C581.818 155.997 581.279 156.648 580.474 157.189C579.818 157.629 579.131 157.88 578.413 157.941C577.698 157.988 577.012 157.846 576.356 157.516C575.703 157.172 575.139 156.647 574.665 155.941C574.191 155.236 573.916 154.523 573.841 153.802C573.769 153.068 573.893 152.382 574.212 151.746C574.54 151.104 575.04 150.557 575.712 150.105C576.36 149.67 577.031 149.424 577.727 149.366C578.423 149.308 579.085 149.441 579.714 149.766C580.336 150.083 580.871 150.573 581.317 151.237ZM579.534 151.784C579.174 151.267 578.706 150.973 578.128 150.903C577.551 150.834 576.993 150.98 576.453 151.342C575.964 151.671 575.65 152.111 575.514 152.66C575.372 153.202 575.446 153.76 575.737 154.336L579.534 151.784ZM582.955 147.082L585.508 150.879C585.681 151.136 585.864 151.284 586.059 151.322C586.256 151.346 586.499 151.26 586.79 151.065L587.661 150.48L588.456 151.662L587.336 152.415C586.697 152.845 586.107 153.024 585.566 152.954C585.024 152.884 584.528 152.513 584.076 151.841L581.523 148.044L580.714 148.588L579.936 147.43L580.745 146.886L579.599 145.181L581.03 144.219L582.177 145.924L583.845 144.803L584.624 145.961L582.955 147.082ZM593.634 142.961C593.806 143.218 593.946 143.462 594.052 143.691L588.811 147.214C589.22 147.733 589.72 148.037 590.308 148.123C590.896 148.21 591.456 148.074 591.987 147.718C592.751 147.204 593.076 146.522 592.961 145.671L594.493 144.642C594.709 145.413 594.68 146.185 594.406 146.96C594.134 147.721 593.596 148.372 592.791 148.913C592.135 149.353 591.448 149.604 590.73 149.665C590.014 149.712 589.329 149.57 588.673 149.24C588.02 148.896 587.456 148.371 586.982 147.665C586.508 146.96 586.233 146.247 586.158 145.526C586.086 144.792 586.21 144.106 586.529 143.47C586.857 142.828 587.357 142.281 588.029 141.829C588.676 141.394 589.348 141.148 590.044 141.09C590.74 141.032 591.402 141.165 592.03 141.49C592.653 141.807 593.187 142.297 593.634 142.961ZM591.851 143.508C591.491 142.991 591.022 142.697 590.445 142.627C589.868 142.558 589.31 142.704 588.77 143.066C588.28 143.395 587.967 143.835 587.831 144.384C587.688 144.926 587.763 145.484 588.053 146.06L591.851 143.508Z" fill="white"/>
<path fill-rule="evenodd" clip-rule="evenodd" d="M720.064 714.433L649.6 745.593C635.98 722.166 624.21 698.919 614.735 675.897L685.2 644.736C694.564 667.006 706.604 690.417 720.064 714.433Z" fill="#2B8E58"/>
<path d="M654.196 671.724L656.41 682.328L654.694 683.224L649.005 677.295L650.692 685.314L648.997 686.215L641.418 678.396L643.027 677.556L648.975 684.027L647.016 675.473L648.718 674.585L654.658 681.009L652.574 672.571L654.196 671.724ZM663.641 678.705C662.949 679.066 662.241 679.238 661.517 679.222C660.787 679.197 660.111 678.986 659.488 678.589C658.86 678.184 658.344 677.607 657.94 676.859C657.541 676.12 657.351 675.379 657.371 674.635C657.39 673.892 657.6 673.219 658.001 672.614C658.402 672.01 658.953 671.525 659.653 671.16C660.353 670.794 661.07 670.617 661.804 670.629C662.537 670.64 663.223 670.847 663.859 671.247C664.496 671.648 665.014 672.218 665.413 672.957C665.812 673.697 665.997 674.44 665.969 675.188C665.941 675.936 665.72 676.621 665.306 677.243C664.896 677.852 664.341 678.339 663.641 678.705ZM662.935 677.398C663.325 677.194 663.639 676.912 663.876 676.552C664.122 676.186 664.252 675.763 664.265 675.283C664.278 674.802 664.142 674.298 663.857 673.77C663.572 673.242 663.23 672.85 662.832 672.596C662.428 672.333 662.008 672.197 661.572 672.188C661.135 672.179 660.722 672.277 660.332 672.48C659.942 672.684 659.628 672.966 659.391 673.327C659.163 673.683 659.051 674.096 659.056 674.568C659.055 675.03 659.198 675.526 659.483 676.054C659.905 676.837 660.433 677.34 661.064 677.563C661.7 677.772 662.324 677.717 662.935 677.398ZM668.584 666.496C669.16 666.195 669.739 666.046 670.319 666.047C670.908 666.044 671.457 666.209 671.966 666.541C672.475 666.873 672.907 667.369 673.264 668.029L675.579 672.319L674.077 673.103L671.882 669.038C671.531 668.387 671.098 667.975 670.585 667.803C670.067 667.623 669.525 667.68 668.957 667.977C668.39 668.273 668.033 668.685 667.886 669.213C667.743 669.727 667.848 670.31 668.199 670.961L670.394 675.027L668.878 675.818L664.952 668.545L666.468 667.754L666.917 668.585C667.003 668.156 667.192 667.759 667.483 667.393C667.783 667.022 668.15 666.723 668.584 666.496Z" fill="white"/>
<path d="M40.2568 246.003C36.5049 246.176 35.7568 254.503 35.7568 254.503C35.7568 254.503 27.0885 256.053 27.2568 260.003C27.4208 263.85 35.7568 265.003 35.7568 265.003C35.7568 265.003 37.5323 273.711 41.2568 273.003C44.3498 272.414 45.2568 266.003 45.2568 266.003C45.2568 266.003 55.1792 262.984 54.2568 258.503C53.4804 254.731 45.7568 253.503 45.7568 253.503C45.7568 253.503 43.885 245.835 40.2568 246.003Z" fill="#F0F2F5"/>
<circle cx="554.846" cy="341.954" r="100" transform="rotate(10.7907 554.846 341.954)" fill="#C7FB00"/>
<path fill-rule="evenodd" clip-rule="evenodd" d="M653.078 360.676C648.113 386.729 633.001 409.742 611.068 424.653C589.135 439.564 562.177 445.151 536.124 440.186C510.072 435.22 487.058 420.109 472.148 398.176C457.237 376.243 451.649 349.284 456.615 323.232C461.58 297.179 476.692 274.166 498.625 259.255C520.558 244.344 547.516 238.757 573.569 243.722C599.621 248.688 622.634 263.799 637.545 285.732C652.456 307.665 658.044 334.623 653.078 360.676ZM591.395 317.107C589.843 325.249 585.121 332.44 578.266 337.1C571.412 341.76 562.988 343.506 554.846 341.954C546.705 340.402 539.513 335.68 534.854 328.826C530.194 321.972 528.448 313.547 530 305.406C531.551 297.264 536.274 290.073 543.128 285.413C549.982 280.753 558.406 279.007 566.548 280.559C574.689 282.111 581.881 286.833 586.541 293.687C591.2 300.541 592.946 308.966 591.395 317.107ZM550.166 366.512C538.754 364.326 526.989 364.826 515.804 367.973C504.618 371.119 494.318 376.826 485.72 384.642C491.628 394.241 499.476 402.501 508.76 408.894C518.043 415.286 528.559 419.671 539.635 421.767C550.705 423.892 562.096 423.682 573.08 421.153C584.065 418.623 594.4 413.828 603.426 407.076C598.305 396.645 590.826 387.55 581.582 380.51C572.338 373.469 561.582 368.677 550.166 366.512Z" fill="#B382FE"/>
<path d="M544.279 642.003C537.347 642.317 535.965 657.404 535.965 657.404C535.965 657.404 519.95 660.212 520.261 667.369C520.564 674.341 535.965 676.429 535.965 676.429C535.965 676.429 539.245 692.208 546.126 690.924C551.841 689.857 553.517 678.241 553.517 678.241C553.517 678.241 571.849 672.771 570.145 664.651C568.71 657.817 554.44 655.592 554.44 655.592C554.44 655.592 550.982 641.699 544.279 642.003Z" fill="#F0F2F5"/>
<defs>
<filter id="filter0_d_1167_18784" x="294.539" y="16.9893" width="259.5" height="195.149" filterUnits="userSpaceOnUse" color-interpolation-filters="sRGB">
<feFlood flood-opacity="0" result="BackgroundImageFix"/>
<feColorMatrix in="SourceAlpha" type="matrix" values="0 0 0 0 0 0 0 0 0 0 0 0 0 0 0 0 0 0 127 0" result="hardAlpha"/>
<feOffset/>
<feGaussianBlur stdDeviation="2.5"/>
<feComposite in2="hardAlpha" operator="out"/>
<feColorMatrix type="matrix" values="0 0 0 0 0 0 0 0 0 0 0 0 0 0 0 0 0 0 0.25 0"/>
<feBlend mode="normal" in2="BackgroundImageFix" result="effect1_dropShadow_1167_18784"/>
<feBlend mode="normal" in="SourceGraphic" in2="effect1_dropShadow_1167_18784" result="shape"/>
</filter>
</defs>
</svg>
