<svg width="43" height="52" viewBox="0 0 43 52" fill="none" xmlns="http://www.w3.org/2000/svg">
<path d="M14.8054 10.2581C17.7515 8.62861 21.0961 7.85418 24.4605 8.02264C27.825 8.19109 31.0751 9.29564 33.8429 11.2112L33.8393 11.2161C34.0423 11.3461 34.2439 11.4896 34.3769 11.6722C34.5644 11.9295 34.6992 12.2176 34.7736 12.5199C34.8479 12.8221 34.8603 13.1327 34.8102 13.4339C34.7601 13.7351 34.6482 14.0211 34.4813 14.2753C34.3143 14.5296 34.0952 14.7474 33.8368 14.916C33.5783 15.0847 33.2854 15.201 32.9749 15.2583C32.6644 15.3157 32.3422 15.3129 32.0268 15.2502C31.7503 15.1953 31.4837 15.095 31.2388 14.9544L31.2338 14.9618C29.1681 13.5321 26.7423 12.7078 24.2312 12.5821C21.72 12.4563 19.2236 13.0342 17.0246 14.2504C14.8257 15.4666 13.0119 17.2727 11.7887 19.4639C10.5654 21.6551 9.98133 24.1441 10.1028 26.6492C10.2243 29.1543 11.0464 31.5756 12.4759 33.6388C13.9055 35.702 15.8858 37.3247 18.1921 38.3236C20.4985 39.3224 23.039 39.6573 25.5263 39.2904C28.0136 38.9234 30.3484 37.8695 32.2663 36.2475L32.2726 36.2549C32.5061 36.0597 32.7595 35.8374 33.0426 35.7442C33.3477 35.6438 33.6671 35.6019 33.9824 35.6212C34.2978 35.6405 34.6029 35.7206 34.8805 35.8566C35.158 35.9927 35.4026 36.1822 35.6002 36.4143C35.7977 36.6464 35.9444 36.9168 36.0318 37.2097C36.1192 37.5025 36.1458 37.8122 36.1098 38.1212C36.0738 38.4302 35.9759 38.7324 35.822 39.0105C35.668 39.2886 35.4609 39.5372 35.2125 39.7421L35.2115 39.7409C32.6447 41.9073 29.5223 43.3156 26.196 43.8063C22.8635 44.2979 19.4596 43.8493 16.3695 42.5111C13.2795 41.1729 10.6265 38.9986 8.71112 36.2343C6.79579 33.4701 5.6946 30.2261 5.53182 26.8698C5.36905 23.5135 6.15138 20.1786 7.7903 17.2428C9.42922 14.3071 11.8593 11.8875 14.8054 10.2581Z" fill="#5A4FB5"/>
<path d="M37.5107 26.0001C37.5107 27.7006 36.1104 29.0791 34.3829 29.0791C32.6554 29.0791 31.2551 27.7006 31.2551 26.0001C31.2551 24.2997 32.6554 22.9212 34.3829 22.9212C36.1104 22.9212 37.5107 24.2997 37.5107 26.0001Z" fill="#5A4FB5"/>
<path d="M14.7829 10.2581C17.729 8.62861 21.0736 7.85418 24.4381 8.02264C27.8025 8.19109 31.0527 9.29564 33.8204 11.2112L33.8169 11.2161C34.0198 11.3461 34.2214 11.4896 34.3545 11.6722C34.542 11.9295 34.6768 12.2176 34.7511 12.5199C34.8254 12.8221 34.8379 13.1327 34.7877 13.4339C34.7376 13.7351 34.6258 14.0211 34.4588 14.2753C34.2918 14.5296 34.0727 14.7474 33.8143 14.916C33.5559 15.0847 33.263 15.201 32.9524 15.2583C32.6419 15.3157 32.3197 15.3129 32.0044 15.2502C31.7278 15.1953 31.4613 15.095 31.2163 14.9544L31.2114 14.9618C29.1456 13.5321 26.7199 12.7078 24.2087 12.5821C21.6976 12.4563 19.2011 13.0342 17.0022 14.2504C14.8032 15.4666 12.9895 17.2727 11.7662 19.4639C10.543 21.6551 9.95887 24.1441 10.0804 26.6492C10.2018 29.1543 11.0239 31.5756 12.4535 33.6388C13.8831 35.702 15.8633 37.3247 18.1697 38.3236C20.476 39.3224 23.0166 39.6573 25.5039 39.2904C27.9912 38.9234 30.326 37.8695 32.2438 36.2475L32.2501 36.2549C32.4836 36.0597 32.7371 35.8374 33.0201 35.7442C33.3252 35.6438 33.6446 35.6019 33.96 35.6212C34.2753 35.6405 34.5804 35.7206 34.858 35.8566C35.1355 35.9927 35.3802 36.1822 35.5777 36.4143C35.7752 36.6464 35.9219 36.9168 36.0093 37.2097C36.0967 37.5025 36.1233 37.8122 36.0873 38.1212C36.0513 38.4302 35.9534 38.7324 35.7995 39.0105C35.6456 39.2886 35.4384 39.5372 35.19 39.7421L35.1891 39.7409C32.6223 41.9073 29.4999 43.3156 26.1735 43.8063C22.841 44.2979 19.4371 43.8493 16.3471 42.5111C13.257 41.1729 10.604 38.9986 8.68866 36.2343C6.77333 33.4701 5.67214 30.2261 5.50936 26.8698C5.34659 23.5135 6.12892 20.1786 7.76784 17.2428C9.40676 14.3071 11.8368 11.8875 14.7829 10.2581Z" fill="url(#paint0_linear_1169_18836)"/>
<path d="M23.8298 16.0031C25.7761 15.957 27.698 16.4214 29.3831 17.3449C30.2588 17.713 30.9335 18.2823 30.9335 19.1163C30.9334 20.1712 29.9789 20.914 28.6535 20.914C28.1349 20.9258 27.6537 20.7957 27.2601 20.5701C26.2427 20.0381 25.0933 19.7714 23.9299 19.799C22.7226 19.8276 21.5472 20.1718 20.5336 20.7933C19.5198 21.4149 18.7071 22.2899 18.1856 23.3214C17.6641 24.3529 17.4538 25.5009 17.5781 26.6384C17.7024 27.776 18.1564 28.8588 18.8899 29.7674C19.6234 30.6759 20.6079 31.3749 21.7345 31.7868C22.8611 32.1987 24.0861 32.3075 25.274 32.1015C26.4619 31.8954 27.5665 31.3824 28.4657 30.6191L28.4868 30.6414C28.7813 30.4746 29.1234 30.3821 29.4937 30.3821C30.6203 30.3821 31.5337 31.2373 31.5337 32.2922C31.5337 33.1116 31.0548 33.8102 30.3131 34.0814C29.0352 34.9633 27.5606 35.565 25.9964 35.8363C24.0813 36.1685 22.1065 35.993 20.2903 35.3289C18.474 34.6649 16.887 33.5383 15.7045 32.0736C14.522 30.6089 13.7901 28.863 13.5897 27.029C13.3894 25.1952 13.7284 23.3445 14.5692 21.6817C15.41 20.0187 16.7199 18.6083 18.3541 17.6062C19.9884 16.6041 21.8835 16.0492 23.8298 16.0031Z" fill="url(#paint1_linear_1169_18836)"/>
<defs>
<linearGradient id="paint0_linear_1169_18836" x1="20.7956" y1="8" x2="20.7956" y2="44" gradientUnits="userSpaceOnUse">
<stop stop-color="#CAA9FF"/>
<stop offset="1" stop-color="#5A4FB5"/>
</linearGradient>
<linearGradient id="paint1_linear_1169_18836" x1="22.5337" y1="16" x2="22.5337" y2="36" gradientUnits="userSpaceOnUse">
<stop stop-color="#CAA9FF"/>
<stop offset="1" stop-color="#5A4FB5"/>
</linearGradient>
</defs>
</svg>
