<svg width="12" height="12" viewBox="0 0 12 12" fill="none" xmlns="http://www.w3.org/2000/svg">
<path d="M10 2.5H2C1.73478 2.5 1.48043 2.60536 1.29289 2.79289C1.10536 2.98043 1 3.23478 1 3.5V4.5C1.00105 4.67451 1.04776 4.84571 1.13547 4.99658C1.22319 5.14746 1.34886 5.27274 1.5 5.36V10.5C1.5 10.7652 1.60536 11.0196 1.79289 11.2071C1.98043 11.3946 2.23478 11.5 2.5 11.5H9.5C9.76522 11.5 10.0196 11.3946 10.2071 11.2071C10.3946 11.0196 10.5 10.7652 10.5 10.5V5.36C10.6511 5.27274 10.7768 5.14746 10.8645 4.99658C10.9522 4.84571 10.9989 4.67451 11 4.5V3.5C11 3.23478 10.8946 2.98043 10.7071 2.79289C10.5196 2.60536 10.2652 2.5 10 2.5ZM2 3.5H10V4.5H2V3.5ZM2.5 10.5V5.5H9.5V10.5H2.5Z" fill="black"/>
<path d="M4 5.5H8V6.5H4V5.5Z" fill="black"/>
</svg>
