<svg width="20" height="20" viewBox="0 0 20 20" fill="none" xmlns="http://www.w3.org/2000/svg">
<path fill-rule="evenodd" clip-rule="evenodd" d="M7.83391 2.50293C8.79641 0.836263 11.2031 0.836263 12.1647 2.50293L18.2939 13.1263C19.2556 14.7929 18.0522 16.8763 16.1281 16.8763H3.87058C1.94641 16.8763 0.743909 14.7929 1.70558 13.1263L7.83391 2.50293ZM9.99974 6.87543C10.1655 6.87543 10.3245 6.94128 10.4417 7.05849C10.5589 7.1757 10.6247 7.33467 10.6247 7.50043V10.6254C10.6247 10.7912 10.5589 10.9502 10.4417 11.0674C10.3245 11.1846 10.1655 11.2504 9.99974 11.2504C9.83398 11.2504 9.67501 11.1846 9.5578 11.0674C9.44059 10.9502 9.37474 10.7912 9.37474 10.6254V7.50043C9.37474 7.33467 9.44059 7.1757 9.5578 7.05849C9.67501 6.94128 9.83398 6.87543 9.99974 6.87543ZM9.99974 13.7504C10.1655 13.7504 10.3245 13.6846 10.4417 13.5674C10.5589 13.4502 10.6247 13.2912 10.6247 13.1254C10.6247 12.9597 10.5589 12.8007 10.4417 12.6835C10.3245 12.5663 10.1655 12.5004 9.99974 12.5004C9.83398 12.5004 9.67501 12.5663 9.5578 12.6835C9.44059 12.8007 9.37474 12.9597 9.37474 13.1254C9.37474 13.2912 9.44059 13.4502 9.5578 13.5674C9.67501 13.6846 9.83398 13.7504 9.99974 13.7504Z" fill="#D40C00"/>
</svg>
