<svg width="20" height="20" viewBox="0 0 20 20" fill="none" xmlns="http://www.w3.org/2000/svg">
<path d="M2.9417 2.05837C2.82322 1.94797 2.66652 1.88787 2.5046 1.89072C2.34268 1.89358 2.18819 1.95917 2.07368 2.07368C1.95917 2.18819 1.89358 2.34268 1.89072 2.5046C1.88787 2.66652 1.94797 2.82322 2.05837 2.9417L17.0584 17.9417C17.1156 18.0031 17.1846 18.0524 17.2613 18.0865C17.3379 18.1207 17.4207 18.139 17.5046 18.1405C17.5885 18.142 17.6719 18.1266 17.7497 18.0951C17.8275 18.0637 17.8982 18.0169 17.9576 17.9576C18.0169 17.8982 18.0637 17.8275 18.0951 17.7497C18.1266 17.6719 18.142 17.5885 18.1405 17.5046C18.139 17.4207 18.1207 17.3379 18.0865 17.2613C18.0524 17.1846 18.0031 17.1156 17.9417 17.0584L2.9417 2.05837ZM18.8967 10.4609C18.4475 11.8088 17.6978 13.0369 16.7042 14.0525L14.1217 11.47C14.4003 10.69 14.4518 9.84684 14.27 9.03868C14.0883 8.23053 13.6809 7.49057 13.0952 6.90486C12.5095 6.31914 11.7695 5.91173 10.9614 5.73002C10.1532 5.54831 9.3101 5.59975 8.53003 5.87837L6.46587 3.8142C7.58828 3.35715 8.78897 3.12307 10.0009 3.12503C14.1425 3.12503 17.655 5.81087 18.8967 9.53337C18.9967 9.83503 18.9967 10.16 18.8967 10.4609Z" fill="#828282"/>
<path d="M13.125 10C13.125 10.15 13.1147 10.2972 13.0942 10.4417L9.5575 6.90583C9.70194 6.88528 9.84944 6.875 10 6.875C10.4104 6.875 10.8167 6.95583 11.1959 7.11288C11.575 7.26992 11.9195 7.50011 12.2097 7.79029C12.4999 8.08047 12.7301 8.42497 12.8871 8.80411C13.0442 9.18326 13.125 9.58962 13.125 10ZM10.4417 13.0942L6.90583 9.5575C6.88528 9.70194 6.875 9.84944 6.875 10C6.87492 10.4477 6.97106 10.8903 7.15691 11.2976C7.34276 11.705 7.61397 12.0677 7.95219 12.3611C8.2904 12.6545 8.68772 12.8718 9.11723 12.9983C9.54674 13.1247 9.99841 13.1574 10.4417 13.0942Z" fill="#828282"/>
<path d="M5.62499 9.99962C5.62499 9.48379 5.71415 8.98879 5.87832 8.52962L3.29499 5.94629C2.30174 6.96199 1.55231 8.19014 1.10332 9.53796C1.00332 9.83962 1.00332 10.1646 1.10332 10.4663C2.34415 14.1888 5.85665 16.8746 9.99915 16.8746C11.2492 16.8746 12.4433 16.6296 13.5342 16.1855L11.47 14.1213C10.8097 14.3568 10.1025 14.4303 9.40787 14.3354C8.71327 14.2405 8.05165 13.9801 7.47872 13.5761C6.90579 13.1721 6.43834 12.6363 6.11574 12.0139C5.79313 11.3915 5.62482 10.7007 5.62499 9.99962Z" fill="#828282"/>
</svg>
