<svg width="22" height="22" viewBox="0 0 22 22" fill="none" xmlns="http://www.w3.org/2000/svg">
<path d="M13.82 0H8.17997L7.53296 3.237C6.99727 3.47706 6.48788 3.77197 6.01296 4.117L2.88296 3.058L0.0639648 7.942L2.54496 10.122C2.48505 10.7058 2.48505 11.2942 2.54496 11.878L0.0639648 14.058L2.88397 18.942L6.01296 17.884C6.48496 18.226 6.99296 18.522 7.53296 18.763L8.17997 22H13.82L14.467 18.763C15.0027 18.5229 15.512 18.228 15.987 17.883L19.117 18.942L21.937 14.058L19.455 11.878C19.5149 11.2942 19.5149 10.7058 19.455 10.122L21.936 7.942L19.116 3.058L15.988 4.116C15.513 3.77131 15.0036 3.47674 14.468 3.237L13.82 0ZM11 15C9.9391 15 8.92168 14.5786 8.17154 13.8284C7.42139 13.0783 6.99996 12.0609 6.99996 11C6.99996 9.93913 7.42139 8.92172 8.17154 8.17157C8.92168 7.42143 9.9391 7 11 7C12.0608 7 13.0782 7.42143 13.8284 8.17157C14.5785 8.92172 15 9.93913 15 11C15 12.0609 14.5785 13.0783 13.8284 13.8284C13.0782 14.5786 12.0608 15 11 15Z" fill="black"/>
</svg>
