<svg width="18" height="18" viewBox="0 0 18 18" fill="none" xmlns="http://www.w3.org/2000/svg">
<g clip-path="url(#clip0_1145_8674)">
<path d="M8.60209 4.34342C8.68709 4.34342 8.72989 4.29364 8.75145 4.21531C8.97184 3.02714 8.95787 2.9986 10.1958 2.76394C10.2808 2.74967 10.3309 2.70019 10.3309 2.61458C10.3309 2.52928 10.2811 2.47949 10.1955 2.46522C8.96486 2.2163 9.00037 2.18776 8.75145 1.01355C8.7302 0.935528 8.68739 0.885742 8.60209 0.885742C8.51678 0.885742 8.47398 0.935528 8.45243 1.01355C8.2035 2.18776 8.246 2.21599 7.00834 2.46522C6.93002 2.47919 6.87295 2.52897 6.87295 2.61458C6.87295 2.69989 6.93002 2.74967 7.00803 2.76394C8.2463 3.01287 8.23203 3.02714 8.45243 4.21531C8.47368 4.29364 8.51678 4.34342 8.60209 4.34342ZM5.15837 9.23851C5.29346 9.23851 5.38605 9.15321 5.40032 9.0251C5.65623 7.12535 5.72028 7.12535 7.68409 6.74831C7.8122 6.72706 7.90479 6.64146 7.90479 6.50637C7.90479 6.37826 7.8122 6.28597 7.68409 6.26442C5.72028 5.99424 5.64925 5.93019 5.40032 3.99492C5.38605 3.86681 5.29346 3.77422 5.15837 3.77422C5.03027 3.77422 4.93768 3.86681 4.92341 4.0019C4.68875 5.90864 4.58918 5.90165 2.63964 6.26442C2.51153 6.29296 2.41895 6.37826 2.41895 6.50637C2.41895 6.64874 2.51153 6.72706 2.66787 6.74831C4.60345 7.0613 4.68875 7.11108 4.92341 9.01083C4.93768 9.15321 5.03027 9.23851 5.15837 9.23851ZM9.98212 17.115C10.1673 17.115 10.3024 16.9796 10.3379 16.7874C10.8431 12.8887 11.391 12.2979 15.2473 11.8711C15.4464 11.8498 15.5818 11.7005 15.5818 11.5153C15.5818 11.3301 15.4464 11.188 15.2473 11.1595C11.391 10.7327 10.8431 10.1422 10.3379 6.24317C10.3024 6.05101 10.1673 5.9229 9.98212 5.9229C9.79695 5.9229 9.66216 6.05101 9.63362 6.24317C9.12848 10.1422 8.57355 10.7327 4.72427 11.1595C4.51784 11.188 4.38275 11.3304 4.38275 11.5153C4.38275 11.7005 4.51784 11.8498 4.72427 11.8711C8.56627 12.3762 9.09995 12.8956 9.63362 16.7874C9.66216 16.9796 9.79725 17.115 9.98212 17.115Z" fill="#5A4FB5"/>
</g>
<defs>
<clipPath id="clip0_1145_8674">
<rect width="17" height="17" fill="white" transform="translate(0.5 0.5)"/>
</clipPath>
</defs>
</svg>
