<svg width="22" height="20" viewBox="0 0 22 20" fill="none" xmlns="http://www.w3.org/2000/svg">
<path d="M3.5 4.375C3.5 3.28098 3.9346 2.23177 4.70818 1.45818C5.48177 0.684597 6.53098 0.25 7.625 0.25C8.71902 0.25 9.76823 0.684597 10.5418 1.45818C11.3154 2.23177 11.75 3.28098 11.75 4.375C11.75 5.46902 11.3154 6.51823 10.5418 7.29182C9.76823 8.0654 8.71902 8.5 7.625 8.5C6.53098 8.5 5.48177 8.0654 4.70818 7.29182C3.9346 6.51823 3.5 5.46902 3.5 4.375ZM13.25 6.625C13.25 6.18179 13.3373 5.74292 13.5069 5.33344C13.6765 4.92397 13.9251 4.55191 14.2385 4.23851C14.5519 3.92512 14.924 3.67652 15.3334 3.50691C15.7429 3.3373 16.1818 3.25 16.625 3.25C17.0682 3.25 17.5071 3.3373 17.9166 3.50691C18.326 3.67652 18.6981 3.92512 19.0115 4.23851C19.3249 4.55191 19.5735 4.92397 19.7431 5.33344C19.9127 5.74292 20 6.18179 20 6.625C20 7.52011 19.6444 8.37855 19.0115 9.01149C18.3786 9.64442 17.5201 10 16.625 10C15.7299 10 14.8715 9.64442 14.2385 9.01149C13.6056 8.37855 13.25 7.52011 13.25 6.625ZM0.5 17.125C0.5 15.2353 1.25067 13.4231 2.58686 12.0869C3.92306 10.7507 5.73533 10 7.625 10C9.51467 10 11.3269 10.7507 12.6631 12.0869C13.9993 13.4231 14.75 15.2353 14.75 17.125V17.128L14.749 17.247C14.7469 17.3742 14.7125 17.4987 14.6489 17.6089C14.5854 17.7191 14.495 17.8114 14.386 17.877C12.3451 19.1058 10.0072 19.7535 7.625 19.75C5.153 19.75 2.839 19.066 0.865 17.877C0.755851 17.8115 0.665167 17.7193 0.601487 17.6091C0.537806 17.4989 0.503225 17.3743 0.501 17.247L0.5 17.125ZM16.25 17.128L16.249 17.272C16.2434 17.6053 16.1638 17.9332 16.016 18.232C16.2173 18.244 16.4203 18.25 16.625 18.25C18.221 18.25 19.732 17.88 21.076 17.221C21.1973 17.1617 21.3004 17.0708 21.3743 16.9578C21.4482 16.8448 21.4903 16.7139 21.496 16.579L21.5 16.375C21.5001 15.5528 21.2923 14.744 20.8959 14.0237C20.4995 13.3034 19.9274 12.695 19.2327 12.2552C18.538 11.8154 17.7434 11.5585 16.9228 11.5083C16.1021 11.458 15.2821 11.6162 14.539 11.968C15.6513 13.4571 16.2512 15.2664 16.249 17.125L16.25 17.128Z" fill="black"/>
</svg>
